# xmcd
#
# Track frame offsets:
#	150
#	10245
#	21010
#	29500
#	39617
#	49437
#	60212
#	70940
#	81450
#	89942
#	97967
#	106617
#	115502
#	125865
#	136052
#	145695
#	154890
#	166300
#	174340
#	182775
#	191215
#	199647
#	209915
#
# Disc length: 2924 seconds
#
# Revision: 3
# Processed by: cddbd v1.5.2PL0 Copyright (c) Steve Scherf et al.
# Submitted via: audiograbber 1.83.01
#
DISCID=490b6a17
DTITLE=Buddy Knox - Jimmy Bowen - Buddy Knox - Buddy Knox and Jimmy Bowen
DYEAR=1999
DGENRE=Oldies
TTITLE0=Buddy Knox - Party Doll
TTITLE1=Buddy Knox - Don't Make Me Cry
TTITLE2=Buddy Knox - Rock House
TTITLE3=Buddy Knox - Rock-A-Billy Walk
TTITLE4=Buddy Knox - Devil Woman
TTITLE5=Buddy Knox - Rock Your Little Baby To Sleep
TTITLE6=Buddy Knox - Hula Love
TTITLE7=Buddy Knox - Mary Lou
TTITLE8=Buddy Knox - Maybelline
TTITLE9=Buddy Knox - I'm In Love With You
TTITLE10=Buddy Knox - Rock Around The Clock
TTITLE11=Buddy Knox and Jimmy Bowen - That's Why I Cry
TTITLE12=Buddy Knox and Jimmy Bowen - Teasable, Pleasable You
TTITLE13=Buddy Knox and Jimmy Bowen - Somebody Touched Me
TTITLE14=Buddy Knox and Jimmy Bowen - All For You
TTITLE15=Buddy Knox and Jimmy Bowen - Come On Baby
TTITLE16=Buddy Knox and Jimmy Bowen - The Girl With The Golden Hair
TTITLE17=Buddy Knox and Jimmy Bowen - By The Light Of The Silvery Moon
TTITLE18=Buddy Knox and Jimmy Bowen - My Kind Of Woman
TTITLE19=Buddy Knox and Jimmy Bowen - Blue Moon
TTITLE20=Buddy Knox and Jimmy Bowen - Stick With Me
TTITLE21=Buddy Knox and Jimmy Bowen - Whenever I'm Lonely
TTITLE22=Buddy Knox and Jimmy Bowen - The Two Step
EXTD=\n
EXTT0=
EXTT1=
EXTT2=
EXTT3=
EXTT4=
EXTT5=
EXTT6=
EXTT7=
EXTT8=
EXTT9=
EXTT10=
EXTT11=
EXTT12=
EXTT13=
EXTT14=
EXTT15=
EXTT16=
EXTT17=
EXTT18=
EXTT19=
EXTT20=
EXTT21=
EXTT22=
PLAYORDER=
